<?xml version="1.0" standalone="no"?>
<!DOCTYPE svg PUBLIC "-//W3C//DTD SVG 20010904//EN" "http://www.w3.org/TR/2001/REC-SVG-20010904/DTD/svg10.dtd">
<svg xmlns="http://www.w3.org/2000/svg" version="1.0" width="1887.000000pt" height="2277.000000pt" viewBox="0 0 1887.000000 2277.000000" preserveAspectRatio="xMidYMid meet">
<metadata>
Created by potrace 1.16, written by Peter Selinger 2001-2019
<meta name="Producer" content="Online-Convert"/></metadata>
<g transform="translate(0.000000,2277.000000) scale(0.100000,-0.100000)" fill="#000000" stroke="none">
<path d="M14505 22175 c-825 -326 -1506 -598 -1514 -602 -11 -7 94 -92 408 -329 232 -175 427 -320 434 -322 7 -1 273 101 592 227 l580 229 3 -32 c2 -17 -15 -295 -38 -616 -23 -321 -40 -599 -38 -616 3 -30 36 -58 433 -358 l430 -326 8 48 c7 45 227 3209 227 3265 0 15 -5 27 -12 26 -7 0 -688 -267 -1513 -594z"/>
<path d="M9655 21473 c-1333 -85 -2551 -745 -3358 -1819 -439 -585 -743 -1314 -852 -2041 -52 -349 -49 -110 -52 -4135 l-4 -3728 971 0 970 0 3 3718 c3 4059 -2 3746 57 4012 68 315 197 618 379 892 433 651 1109 1062 1897 1154 166 20 479 14 644 -11 557 -84 1072 -345 1470 -744 199 -199 348 -404 475 -653 71 -138 73 -140 88 -117 8 13 256 433 551 933 l535 909 -42 51 c-75 91 -369 386 -481 483 -748 644 -1661 1020 -2651 1093 -127 9 -477 11 -600 3z"/>
<path d="M13171 17220 c-626 -1063 -918 -1550 -930 -1550 -10 0 -37 -36 -71 -91 -394 -653 -1056 -1105 -1811 -1233 -223 -38 -513 -44 -739 -16 -453 57 -900 243 -1272 527 -104 79 -318 284 -401 383 l-47 55 0 -1221 0 -1221 128 -60 c1130 -536 2518 -560 3682 -63 1078 460 1943 1321 2399 2387 266 622 385 1243 368 1923 -12 461 -78 860 -213 1281 -50 158 -163 449 -173 449 -3 0 -417 -698 -920 -1550z"/>
<path d="M11745 6559 c-407 -1006 -741 -1834 -743 -1840 -2 -5 54 -9 140 -9 l143 0 157 388 157 387 886 0 887 0 155 -387 155 -388 143 0 143 0 -736 1840 c-405 1012 -738 1840 -741 1840 -4 0 -339 -824 -746 -1831z m1515 -801 c0 -5 -349 -8 -775 -8 -426 0 -775 2 -775 5 0 7 769 1905 777 1918 5 8 773 -1894 773 -1915z"/>
<path d="M5140 6530 l0 -1820 130 0 130 0 0 614 0 614 613 5 c587 4 616 5 711 26 475 106 829 461 927 931 27 134 30 344 5 472 -49 255 -168 473 -357 653 -179 171 -404 281 -643 314 -49 7 -339 11 -797 11 l-719 0 0 -1820z m1515 1531 c189 -39 347 -123 481 -256 273 -271 352 -672 203 -1030 -120 -290 -396 -509 -702 -558 -50 -9 -246 -11 -654 -9 l-583 3 0 935 0 934 583 0 c529 0 590 -2 672 -19z"/>
<path d="M8200 6530 l0 -1820 130 0 130 0 0 1820 0 1820 -130 0 -130 0 0 -1820z"/>
<path d="M8990 8220 l0 -130 505 0 505 0 0 -1690 0 -1690 130 0 130 0 0 1690 0 1690 510 0 510 0 0 130 0 130 -1145 0 -1145 0 0 -130z"/>
<path d="M2740 3656 c0 -3 241 -412 536 -910 l535 -905 -532 -903 c-292 -496 -534 -908 -536 -916 -4 -10 26 -12 148 -10 l154 3 459 777 c253 427 463 775 467 773 4 -3 213 -354 465 -780 l459 -775 153 0 154 0 -30 53 c-16 28 -257 438 -536 911 -278 472 -506 862 -506 867 0 4 236 411 525 904 289 493 525 901 525 906 0 5 -66 9 -149 9 l-149 0 -372 -632 c-205 -348 -412 -699 -460 -781 l-87 -147 -459 780 -459 780 -152 0 c-84 0 -153 -2 -153 -4z"/>
<path d="M5720 1836 l0 -1826 130 0 130 0 0 620 0 620 593 0 c473 0 610 3 683 15 494 80 884 464 981 965 24 126 21 337 -6 470 -90 431 -412 785 -826 905 -164 47 -167 47 -942 52 l-743 4 0 -1825z m1496 1533 c194 -34 378 -132 515 -275 83 -88 120 -143 174 -257 52 -114 73 -189 84 -307 26 -279 -67 -537 -267 -742 -126 -130 -263 -209 -437 -253 -114 -29 -114 -29 -762 -27 l-543 2 0 935 0 935 588 0 c367 0 611 -4 648 -11z"/>
<path d="M8780 1835 l0 -1825 130 0 130 0 0 620 0 620 472 -2 472 -3 468 -615 468 -615 165 -3 c91 -1 165 1 165 5 0 5 -212 287 -471 628 l-471 620 64 13 c464 93 831 470 924 950 21 105 23 315 5 422 -81 471 -431 853 -886 969 -142 36 -264 41 -961 41 l-674 0 0 -1825z m1493 1540 c368 -64 659 -331 754 -693 21 -80 26 -120 26 -227 0 -205 -44 -357 -152 -521 -126 -192 -317 -330 -546 -395 -79 -23 -89 -23 -697 -27 l-618 -3 0 941 0 940 574 0 c463 0 590 -3 659 -15z"/>
<path d="M0 1825 l0 -1825 1100 0 1100 0 0 135 0 135 -970 0 -970 0 0 490 0 490 855 0 855 0 0 130 0 130 -855 0 -855 0 0 935 0 935 970 0 970 0 0 135 0 135 -1100 0 -1100 0 0 -1825z"/>
<path d="M11850 1825 l0 -1825 1105 0 1105 0 0 135 0 135 -975 0 -975 0 0 490 0 490 855 0 855 0 0 130 0 130 -855 0 -855 0 0 935 0 935 975 0 975 0 0 135 0 135 -1105 0 -1105 0 0 -1825z"/>
<path d="M15238 3640 c-253 -45 -486 -235 -581 -473 -126 -315 -33 -687 223 -892 36 -29 270 -171 520 -315 250 -145 481 -283 513 -308 112 -88 209 -234 257 -387 34 -108 38 -274 11 -390 -81 -340 -369 -582 -714 -602 -232 -13 -445 72 -609 245 l-68 70 -105 -80 -105 -80 19 -27 c106 -147 345 -307 540 -360 484 -133 1000 96 1218 539 193 392 128 855 -166 1182 -86 95 -187 162 -651 428 -359 207 -456 267 -510 317 -277 258 -188 705 167 844 46 18 83 23 185 27 146 5 205 -5 296 -50 62 -31 157 -113 198 -170 l19 -27 110 64 c60 35 111 68 112 72 6 17 -106 150 -171 205 -74 62 -198 128 -291 153 -69 19 -341 29 -417 15z"/>
<path d="M17625 3636 c-307 -71 -529 -291 -600 -596 -19 -82 -19 -244 0 -332 39 -185 151 -358 299 -462 33 -23 263 -159 510 -302 385 -222 460 -269 524 -329 306 -285 335 -744 67 -1067 -97 -116 -251 -214 -405 -255 -89 -24 -290 -24 -380 0 -145 38 -313 143 -403 251 l-38 46 -87 -67 c-140 -107 -134 -89 -63 -171 208 -241 552 -375 880 -343 142 15 234 41 366 106 293 143 494 406 560 734 26 128 17 365 -19 486 -70 234 -207 431 -392 561 -39 27 -270 164 -513 304 -375 216 -453 264 -505 316 -114 112 -170 274 -148 427 30 205 188 382 382 426 71 17 268 14 331 -5 112 -33 217 -106 289 -201 l25 -33 110 66 c61 36 111 67 112 68 7 7 -78 117 -128 167 -80 78 -184 141 -299 180 -89 30 -105 33 -255 36 -110 2 -179 -2 -220 -11z"/>
</g>
</svg>
